<svg data-v-0dd9719b="" width="326" height="100" version="1.0" xmlns="http://www.w3.org/2000/svg" xmlns:xlink="http://www.w3.org/1999/xlink" preserveAspectRatio="xMidYMid meet" color-interpolation-filters="sRGB"> <!----> <g data-v-0dd9719b="" fill="#FD9248" class="basesvg"><g data-gra="path-name" fill-rule="" class="tp-name" fill="url(&quot;#e1f6b31f-8c04-433d-afed-56d614d4be8a&quot;)"><g transform="scale(1.8200000000000012)" fill="url(&quot;#e1f6b31f-8c04-433d-afed-56d614d4be8a&quot;)"><g fill="url(&quot;#e1f6b31f-8c04-433d-afed-56d614d4be8a&quot;)"><path d="M17.93-31.78L19.64-32.13 6.86-2.07Q6.45-0.95 5.59-0.33 4.73 0.3 3.73 0.3L3.73 0.3Q2.13 0.3 1.36-0.59 0.59-1.48 0.59-2.78L0.59-2.78Q0.59-3.31 0.77-3.91L0.77-3.91 15.5-39.29Q15.98-40.47 16.95-41.12 17.93-41.78 19.05-41.66L19.05-41.66Q20.12-41.66 21.04-41.04 21.95-40.41 22.37-39.29L22.37-39.29 36.92-4.62Q37.22-3.85 37.22-3.2L37.22-3.2Q37.22-1.6 36.18-0.65 35.15 0.3 33.91 0.3L33.91 0.3Q32.84 0.3 31.98-0.36 31.12-1.01 30.65-2.13L30.65-2.13 17.93-31.78ZM29.05-9.29L8.7-9.29 11.95-16.09 27.93-16.09 29.05-9.29ZM48.34-28.05L48.34-3.61Q48.34-2.07 47.34-1.04 46.33 0 44.79 0L44.79 0Q43.25 0 42.25-1.04 41.24-2.07 41.24-3.61L41.24-3.61 41.24-28.05Q41.24-29.59 42.25-30.62 43.25-31.66 44.79-31.66L44.79-31.66Q46.33-31.66 47.34-30.62 48.34-29.59 48.34-28.05L48.34-28.05ZM44.73-35.5L44.73-35.5Q42.72-35.5 41.89-36.15 41.07-36.8 41.07-38.46L41.07-38.46 41.07-39.59Q41.07-41.3 41.98-41.92 42.9-42.54 44.79-42.54L44.79-42.54Q46.86-42.54 47.69-41.89 48.52-41.24 48.52-39.59L48.52-39.59 48.52-38.46Q48.52-36.75 47.63-36.12 46.75-35.5 44.73-35.5ZM72.01-32.25L72.01-32.25Q76.15-32.25 79.44-30.15 82.72-28.05 84.64-24.38 86.57-20.71 86.57-15.86L86.57-15.86Q86.57-11.01 84.64-7.31 82.72-3.61 79.5-1.51 76.27 0.59 72.25 0.59L72.25 0.59Q69.88 0.59 67.81-0.18 65.74-0.95 64.17-2.13 62.6-3.31 61.75-4.53 60.89-5.74 60.89-6.57L60.89-6.57 62.72-7.34 62.72 8.22Q62.72 9.76 61.72 10.8 60.71 11.83 59.17 11.83L59.17 11.83Q57.63 11.83 56.63 10.83 55.62 9.82 55.62 8.22L55.62 8.22 55.62-28.05Q55.62-29.59 56.63-30.62 57.63-31.66 59.17-31.66L59.17-31.66Q60.71-31.66 61.72-30.62 62.72-29.59 62.72-28.05L62.72-28.05 62.72-25.15 61.72-25.68Q61.72-26.45 62.54-27.54 63.37-28.64 64.79-29.73 66.21-30.83 68.08-31.54 69.94-32.25 72.01-32.25ZM71.12-25.74L71.12-25.74Q68.52-25.74 66.57-24.44 64.62-23.14 63.52-20.92 62.43-18.7 62.43-15.86L62.43-15.86Q62.43-13.08 63.52-10.8 64.62-8.52 66.57-7.22 68.52-5.92 71.12-5.92L71.12-5.92Q73.73-5.92 75.65-7.22 77.57-8.52 78.67-10.8 79.76-13.08 79.76-15.86L79.76-15.86Q79.76-18.7 78.67-20.92 77.57-23.14 75.65-24.44 73.73-25.74 71.12-25.74ZM96.04 0L96.04 0Q94.5 0 93.49-1.04 92.49-2.07 92.49-3.61L92.49-3.61 92.49-28.05Q92.49-29.59 93.49-30.62 94.5-31.66 96.04-31.66L96.04-31.66Q97.57-31.66 98.58-30.62 99.59-29.59 99.59-28.05L99.59-28.05 99.59-22.49 99.17-26.45Q99.82-27.87 100.86-28.96 101.89-30.06 103.2-30.8 104.5-31.54 105.98-31.89 107.46-32.25 108.93-32.25L108.93-32.25Q110.71-32.25 111.92-31.24 113.14-30.24 113.14-28.88L113.14-28.88Q113.14-26.92 112.13-26.07 111.12-25.21 109.94-25.21L109.94-25.21Q108.82-25.21 107.9-25.62 106.98-26.04 105.8-26.04L105.8-26.04Q104.73-26.04 103.64-25.53 102.54-25.03 101.63-23.96 100.71-22.9 100.15-21.33 99.59-19.76 99.59-17.63L99.59-17.63 99.59-3.61Q99.59-2.07 98.58-1.04 97.57 0 96.04 0ZM143.08-32.25L143.08-32.25Q144.62-32.25 145.62-31.24 146.63-30.24 146.63-28.64L146.63-28.64 146.63-3.61Q146.63-2.07 145.62-1.04 144.62 0 143.08 0L143.08 0Q141.54 0 140.53-1.04 139.53-2.07 139.53-3.61L139.53-3.61 139.53-6.51 140.83-5.98Q140.83-5.21 140-4.11 139.17-3.02 137.75-1.95 136.33-0.89 134.41-0.15 132.49 0.59 130.24 0.59L130.24 0.59Q126.15 0.59 122.84-1.51 119.53-3.61 117.6-7.31 115.68-11.01 115.68-15.8L115.68-15.8Q115.68-20.65 117.6-24.35 119.53-28.05 122.78-30.15 126.04-32.25 130-32.25L130-32.25Q132.54-32.25 134.67-31.48 136.8-30.71 138.37-29.53 139.94-28.34 140.8-27.13 141.66-25.92 141.66-25.09L141.66-25.09 139.53-24.32 139.53-28.64Q139.53-30.18 140.53-31.21 141.54-32.25 143.08-32.25ZM131.12-5.92L131.12-5.92Q133.73-5.92 135.68-7.22 137.63-8.52 138.73-10.77 139.82-13.02 139.82-15.8L139.82-15.8Q139.82-18.64 138.73-20.89 137.63-23.14 135.68-24.44 133.73-25.74 131.12-25.74L131.12-25.74Q128.58-25.74 126.63-24.44 124.67-23.14 123.58-20.89 122.49-18.64 122.49-15.8L122.49-15.8Q122.49-13.02 123.58-10.77 124.67-8.52 126.63-7.22 128.58-5.92 131.12-5.92ZM168.11-32.25L168.11-32.25Q171.48-32.25 173.99-31.54 176.51-30.83 177.9-29.56 179.29-28.28 179.29-26.51L179.29-26.51Q179.29-25.33 178.58-24.29 177.87-23.25 176.51-23.25L176.51-23.25Q175.56-23.25 174.94-23.52 174.32-23.79 173.85-24.2 173.37-24.62 172.72-24.97L172.72-24.97Q172.13-25.33 170.92-25.53 169.7-25.74 169.11-25.74L169.11-25.74Q166.09-25.74 163.99-24.44 161.89-23.14 160.77-20.92 159.64-18.7 159.64-15.8L159.64-15.8Q159.64-12.96 160.8-10.74 161.95-8.52 163.99-7.22 166.04-5.92 168.7-5.92L168.7-5.92Q170.18-5.92 171.24-6.09 172.31-6.27 173.02-6.63L173.02-6.63Q173.85-7.1 174.5-7.63 175.15-8.17 176.45-8.17L176.45-8.17Q177.99-8.17 178.82-7.19 179.64-6.21 179.64-4.79L179.64-4.79Q179.64-3.31 177.99-2.1 176.33-0.89 173.64-0.15 170.95 0.59 167.81 0.59L167.81 0.59Q163.14 0.59 159.7-1.57 156.27-3.73 154.41-7.46 152.54-11.18 152.54-15.8L152.54-15.8Q152.54-20.65 154.53-24.35 156.51-28.05 160.03-30.15 163.55-32.25 168.11-32.25Z" transform="translate(-0.5900000333786011, 42.540000915527344)" fill="url(&quot;#e1f6b31f-8c04-433d-afed-56d614d4be8a&quot;)"></path></g> <!----> <!----> <!----> <!----> <!----> <!----> <!----></g></g> <!----></g><defs v-gra="od"><linearGradient x1="0" y1="1" x2="0" y2="0" id="e1f6b31f-8c04-433d-afed-56d614d4be8a"><stop offset="0%" stop-color="#fd9248"></stop><stop offset="50%" stop-color="#fa1768"></stop><stop offset="100%" stop-color="#f001ff"></stop></linearGradient><filter id="42443b3f1de60f6b6fd3b6a9844b4764" filterUnits="objectBoundingBox"><feColorMatrix type="matrix" values="0 0 0 0 0.99609375  0 0 0 0 0.99609375  0 0 0 0 0.99609375  0 0 0 1 0"></feColorMatrix></filter><linearGradient x1="0" y1="1" x2="0" y2="0" id="e1f6b31f-8c04-433d-afed-56d614d4be8a"><stop offset="0%" stop-color="#fd9248"></stop><stop offset="50%" stop-color="#fa1768"></stop><stop offset="100%" stop-color="#f001ff"></stop></linearGradient><linearGradient x1="0" y1="1" x2="0" y2="0" id="e1f6b31f-8c04-433d-afed-56d614d4be8a"><stop offset="0%" stop-color="#fd9248"></stop><stop offset="50%" stop-color="#fa1768"></stop><stop offset="100%" stop-color="#f001ff"></stop></linearGradient><linearGradient x1="0" y1="1" x2="0" y2="0" id="e1f6b31f-8c04-433d-afed-56d614d4be8a"><stop offset="0%" stop-color="#fd9248"></stop><stop offset="50%" stop-color="#fa1768"></stop><stop offset="100%" stop-color="#f001ff"></stop></linearGradient><linearGradient x1="0" y1="1" x2="0" y2="0" id="e1f6b31f-8c04-433d-afed-56d614d4be8a"><stop offset="0%" stop-color="#fd9248"></stop><stop offset="50%" stop-color="#fa1768"></stop><stop offset="100%" stop-color="#f001ff"></stop></linearGradient></defs></svg>